<svg xmlns="http://www.w3.org/2000/svg" viewBox="0 0 458.7 512"><defs><style>.cls-1{fill:#6fc3df;}.cls-2{fill:#fff;}</style></defs><g id="Calque_2" data-name="Calque 2"><g id="Layer_1" data-name="Layer 1"><polygon class="cls-1" points="443.99 192.17 443.99 214.3 349.26 292.62 229.35 391.77 109.44 292.62 14.71 214.3 14.71 192.17 229.35 14.71 443.99 192.17"/><path class="cls-2" d="M453.37,225.64a14.71,14.71,0,0,0,5.33-11.34V192.17a14.71,14.71,0,0,0-5.33-11.34L238.73,3.37a14.73,14.73,0,0,0-18.75,0L5.34,180.83A14.74,14.74,0,0,0,0,192.17V497.29A14.72,14.72,0,0,0,14.72,512H444a14.72,14.72,0,0,0,14.72-14.71V315.93a14.72,14.72,0,1,0-29.43,0V462.14l-131-108.29Zm-224,147-23.51-19.44-81.69-67.55V198.62h210.4v87.07l-81.69,67.55ZM29.43,245.56l131,108.29-131,108.29ZM229.35,33.8,429.28,199.1v8.27l-65.3,54V183.9a14.72,14.72,0,0,0-14.72-14.71H109.44A14.71,14.71,0,0,0,94.73,183.9v77.47l-65.3-54V199.1ZM407.81,482.57H50.89l132.6-109.63L220,403.11a14.69,14.69,0,0,0,18.75,0l36.49-30.17Z"/></g></g></svg>