<svg xmlns="http://www.w3.org/2000/svg" viewBox="0 0 27.59 24.44"><defs><style>.cls-1{fill:#474849;}.cls-2{fill:#0b0e1a;}.cls-3{fill:#6fc3df;}.cls-4{fill:#fff;}</style></defs><g id="Calque_2" data-name="Calque 2"><g id="Calque_1-2" data-name="Calque 1"><g id="Livello_2" data-name="Livello 2"><path class="cls-1" d="M23.7,8.83s.23.23.42.17.82-.42.82-.42L24.7,8Z"/><path class="cls-2" d="M23.51,5.34a2.53,2.53,0,0,1,1.16,2.31A2.77,2.77,0,0,1,24.18,9a4.92,4.92,0,0,0,3.4-4.36,4.69,4.69,0,0,0-.53-2.52A2.59,2.59,0,0,0,25,.7,2.51,2.51,0,0,0,22.26,3V3A2.52,2.52,0,0,0,23.51,5.34Z"/><path class="cls-3" d="M23,5.17a2.56,2.56,0,0,1,.67,3.66A4.93,4.93,0,0,0,27,2.66a5.16,5.16,0,0,0-.31-.77A2.62,2.62,0,0,0,24.58.53,2.52,2.52,0,0,0,23,5.17Z"/><path class="cls-2" d="M10.52,23.77a2.36,2.36,0,0,1-2.22-1.5L.93,3.83A2.41,2.41,0,0,1,5.4,2l7.35,18.45a2.39,2.39,0,0,1-1.33,3.12A2.31,2.31,0,0,1,10.52,23.77Z"/><path class="cls-2" d="M19.73,24.4a2.52,2.52,0,0,1-2.28-1.56L9.89,4a2.52,2.52,0,0,1,4.29-2.66,2.72,2.72,0,0,1,.33.83L22.06,21a2.51,2.51,0,0,1-1.37,3.21A2.4,2.4,0,0,1,19.73,24.4Z"/><path class="cls-2" d="M10.75,24.44a2.2,2.2,0,0,1-.91-.17A2.52,2.52,0,0,1,8.46,21l4.22-10.51a2.51,2.51,0,0,1,3.2-1.39,2.36,2.36,0,0,1,1.34,3.05v0L13,22.75A2.38,2.38,0,0,1,10.75,24.44Z"/><path class="cls-4" d="M21.69,21,14.13,2.12A2.52,2.52,0,1,0,9.54,4l2.63,6.57-1.88,4.78L5,2.12a2.52,2.52,0,0,0-5,.8,2.61,2.61,0,0,0,.4,1L8,22.83a2.53,2.53,0,0,0,2,1.55h.27a2.52,2.52,0,0,0,2.29-1.55l2.27-5.67,2.25,5.66a2.54,2.54,0,0,0,2.3,1.56,2.33,2.33,0,0,0,.9-.18A2.52,2.52,0,0,0,21.69,21Z"/></g></g></g></svg>